<svg xmlns="http://www.w3.org/2000/svg" viewBox="0 0 70 70"><defs><style>.cls-1{fill:#726658;}</style></defs><title>male-7</title><g id="male-7"><path class="cls-1" d="M35,49.5a1,1,0,0,1-.71-.29l-8-8,1.41-1.41L35,47.09l7.29-7.29,1.41,1.41-8,8A1,1,0,0,1,35,49.5Z"/><path class="cls-1" d="M62,64.5H60v-9c0-6.62-6.46-9.77-10.32-11.05l-.13-.05-6-3C43,41.14,40,39.69,40,37.5v-4h2v4c0,.65,1.42,1.65,2.41,2.09l6,3C57.77,45.06,62,49.76,62,55.5Z"/><path class="cls-1" d="M10,64.5H8v-9c0-5.74,4.23-10.44,11.62-12.93l5.94-3C26.73,39.07,28,38.09,28,37.5v-5h2v5c0,2.19-3,3.64-3.59,3.91l-6,3-.13.05C16.46,45.73,10,48.88,10,55.5Z"/><rect class="cls-1" x="50" y="58.5" width="2" height="6"/><rect class="cls-1" x="18" y="58.5" width="2" height="6"/><path class="cls-1" d="M35,36.5c-6.69,0-10.07-6.64-11-12.85a1,1,0,0,1,0-.15v-1h2v.93c.81,5.37,3.6,11.07,9,11.07,5.15,0,9-5.28,9-10v-4h2v4C46,30.18,41.48,36.5,35,36.5Z"/><rect class="cls-1" x="39" y="53.5" width="8" height="2"/><path class="cls-1" d="M25,23.92a1,1,0,0,1-.68-.26C19,18.8,21.93,11.88,24.2,8.9a1,1,0,0,1,1.69.16,6,6,0,0,0,.77,1.18.63.63,0,0,0,.41-.21l.6-.64c4.85-5.13,8.75-4.89,8.91-4.88a1,1,0,0,1,.92,1.07,3.59,3.59,0,0,0,.08,1,4.65,4.65,0,0,1,6.07.5c.8.63,8.11,6.79,2.16,15A1,1,0,0,1,44,21.61l-.4-3.43a1,1,0,0,1,0-.11,2.58,2.58,0,0,0-.18-1,2,2,0,0,0-2.56-1,16,16,0,0,1-5.44.72A16,16,0,0,1,30,16.06a2,2,0,0,0-2.56,1c-.11.33-.83,3.36-1.45,6a1,1,0,0,1-1,.78Zm0-12.56c-1.14,2-2.82,6-.52,9.43.46-2,1-4.11,1.1-4.42a3.94,3.94,0,0,1,5.13-2.17,13.76,13.76,0,0,0,4.73.59,13.76,13.76,0,0,0,4.73-.59,3.94,3.94,0,0,1,5.13,2.17A4.57,4.57,0,0,1,45.6,18l0,.22c2-5.63-3-9.46-3.24-9.64l-.11-.1c-1.82-1.82-3.81-.16-4,0a1,1,0,0,1-.67.26,1.8,1.8,0,0,1-1.35-.58,3,3,0,0,1-.68-1.6c-1.22.26-3.59,1.15-6.43,4.15l-.6.64a2.53,2.53,0,0,1-2.4.78A2.17,2.17,0,0,1,25,11.36Zm1.73-1.07Z"/></g></svg>